<mxfile host="65bd71144e">
    <diagram id="8y6lhMrClpbt4YpOG62P" name="Page-1">
        <mxGraphModel dx="2961" dy="549" grid="1" gridSize="10" guides="1" tooltips="1" connect="1" arrows="1" fold="1" page="1" pageScale="1" pageWidth="850" pageHeight="1100" math="0" shadow="0">
            <root>
                <mxCell id="0"/>
                <mxCell id="1" parent="0"/>
                <mxCell id="3" style="edgeStyle=none;html=1;entryX=0.5;entryY=0;entryDx=0;entryDy=0;" edge="1" parent="1" source="2" target="4">
                    <mxGeometry relative="1" as="geometry">
                        <mxPoint x="470" y="160" as="targetPoint"/>
                    </mxGeometry>
                </mxCell>
                <mxCell id="2" value="&lt;b&gt;&lt;font style=&quot;font-size: 14px;&quot;&gt;START&lt;/font&gt;&lt;/b&gt;" style="ellipse;whiteSpace=wrap;html=1;fillColor=#FF6666;" vertex="1" parent="1">
                    <mxGeometry x="1370" y="20" width="120" height="60" as="geometry"/>
                </mxCell>
                <mxCell id="5" style="edgeStyle=none;html=1;entryX=0.5;entryY=0;entryDx=0;entryDy=0;entryPerimeter=0;" edge="1" parent="1" source="4" target="6">
                    <mxGeometry relative="1" as="geometry">
                        <mxPoint x="470" y="280" as="targetPoint"/>
                    </mxGeometry>
                </mxCell>
                <mxCell id="4" value="&lt;b&gt;DISPLAY LOG IN FORM&lt;/b&gt;" style="rounded=1;whiteSpace=wrap;html=1;fillColor=#FFC233;" vertex="1" parent="1">
                    <mxGeometry x="1325" y="150" width="210" height="80" as="geometry"/>
                </mxCell>
                <mxCell id="7" style="edgeStyle=none;html=1;" edge="1" parent="1" source="6" target="8">
                    <mxGeometry relative="1" as="geometry">
                        <mxPoint x="470" y="430" as="targetPoint"/>
                    </mxGeometry>
                </mxCell>
                <mxCell id="6" value="&lt;b&gt;PROMPT USER TO FILL UP FORM&lt;/b&gt;" style="shape=parallelogram;perimeter=parallelogramPerimeter;whiteSpace=wrap;html=1;fixedSize=1;fillColor=#007FFF;" vertex="1" parent="1">
                    <mxGeometry x="1310" y="310" width="240" height="70" as="geometry"/>
                </mxCell>
                <mxCell id="20" style="edgeStyle=none;html=1;fontSize=14;entryX=0.5;entryY=0;entryDx=0;entryDy=0;" edge="1" parent="1" source="8" target="21">
                    <mxGeometry relative="1" as="geometry">
                        <mxPoint x="470" y="620" as="targetPoint"/>
                    </mxGeometry>
                </mxCell>
                <mxCell id="8" value="&lt;b&gt;VERIFIED AS ADMIN ?&lt;/b&gt;" style="rhombus;whiteSpace=wrap;html=1;fillColor=#B266FF;" vertex="1" parent="1">
                    <mxGeometry x="1350" y="450" width="160" height="120" as="geometry"/>
                </mxCell>
                <mxCell id="10" value="" style="endArrow=none;html=1;" edge="1" parent="1">
                    <mxGeometry width="50" height="50" relative="1" as="geometry">
                        <mxPoint x="1200" y="509.29" as="sourcePoint"/>
                        <mxPoint x="1350" y="509.29" as="targetPoint"/>
                    </mxGeometry>
                </mxCell>
                <mxCell id="11" value="" style="endArrow=none;html=1;" edge="1" parent="1">
                    <mxGeometry width="50" height="50" relative="1" as="geometry">
                        <mxPoint x="1200" y="510" as="sourcePoint"/>
                        <mxPoint x="1200" y="190" as="targetPoint"/>
                    </mxGeometry>
                </mxCell>
                <mxCell id="14" value="&lt;b&gt;DISPLAY ERROR MESSAGE&lt;/b&gt;" style="rounded=1;whiteSpace=wrap;html=1;fillColor=#FFC233;" vertex="1" parent="1">
                    <mxGeometry x="1120" y="300" width="150" height="60" as="geometry"/>
                </mxCell>
                <mxCell id="16" value="&lt;font style=&quot;font-size: 14px;&quot;&gt;&lt;b&gt;NO&lt;/b&gt;&lt;/font&gt;" style="text;strokeColor=none;align=center;fillColor=none;html=1;verticalAlign=middle;whiteSpace=wrap;rounded=0;" vertex="1" parent="1">
                    <mxGeometry x="1230" y="470" width="60" height="30" as="geometry"/>
                </mxCell>
                <mxCell id="23" style="edgeStyle=none;html=1;fontSize=14;entryX=0.5;entryY=0;entryDx=0;entryDy=0;" edge="1" parent="1" source="21" target="28">
                    <mxGeometry relative="1" as="geometry">
                        <mxPoint x="470" y="780" as="targetPoint"/>
                    </mxGeometry>
                </mxCell>
                <mxCell id="21" value="&lt;b&gt;DISPLAY SUCCESSFUL MESSAGE&lt;/b&gt;" style="rounded=1;whiteSpace=wrap;html=1;fillColor=#FFC233;" vertex="1" parent="1">
                    <mxGeometry x="1335" y="640" width="190" height="50" as="geometry"/>
                </mxCell>
                <mxCell id="22" value="&lt;span style=&quot;font-size: 14px;&quot;&gt;&lt;b&gt;YES&lt;/b&gt;&lt;/span&gt;" style="text;strokeColor=none;align=center;fillColor=none;html=1;verticalAlign=middle;whiteSpace=wrap;rounded=0;" vertex="1" parent="1">
                    <mxGeometry x="1440" y="580" width="60" height="30" as="geometry"/>
                </mxCell>
                <mxCell id="231" style="edgeStyle=none;html=1;fontSize=14;elbow=vertical;" edge="1" parent="1" source="26">
                    <mxGeometry relative="1" as="geometry">
                        <mxPoint x="1430" y="1060" as="targetPoint"/>
                    </mxGeometry>
                </mxCell>
                <mxCell id="26" value="&lt;b&gt;PROMPT ADMIN FOR THEIR CHOICE&lt;/b&gt;" style="shape=parallelogram;perimeter=parallelogramPerimeter;whiteSpace=wrap;html=1;fixedSize=1;fillColor=#007FFF;" vertex="1" parent="1">
                    <mxGeometry x="1310" y="930" width="240" height="70" as="geometry"/>
                </mxCell>
                <mxCell id="230" style="edgeStyle=none;html=1;fontSize=14;elbow=vertical;" edge="1" parent="1" source="28" target="26">
                    <mxGeometry relative="1" as="geometry"/>
                </mxCell>
                <mxCell id="28" value="&lt;b&gt;DISPLAY ADMINISTRATION PANEL&lt;/b&gt;" style="rounded=1;whiteSpace=wrap;html=1;fillColor=#FFC233;" vertex="1" parent="1">
                    <mxGeometry x="1335" y="770" width="190" height="90" as="geometry"/>
                </mxCell>
                <mxCell id="32" value="" style="endArrow=none;html=1;fontSize=14;" edge="1" parent="1">
                    <mxGeometry width="50" height="50" relative="1" as="geometry">
                        <mxPoint x="-670" y="1060" as="sourcePoint"/>
                        <mxPoint x="3360" y="1060" as="targetPoint"/>
                    </mxGeometry>
                </mxCell>
                <mxCell id="33" value="" style="endArrow=classic;html=1;fontSize=14;" edge="1" parent="1">
                    <mxGeometry width="50" height="50" relative="1" as="geometry">
                        <mxPoint x="-670" y="1060" as="sourcePoint"/>
                        <mxPoint x="-670" y="1100" as="targetPoint"/>
                    </mxGeometry>
                </mxCell>
                <mxCell id="273" style="edgeStyle=none;html=1;fontSize=18;elbow=vertical;" edge="1" parent="1">
                    <mxGeometry relative="1" as="geometry">
                        <mxPoint x="-679.9999999999998" y="1500" as="targetPoint"/>
                        <mxPoint x="-680" y="1180" as="sourcePoint"/>
                    </mxGeometry>
                </mxCell>
                <mxCell id="34" value="&lt;b&gt;DISPLAY DASHBOARD&lt;/b&gt;" style="rounded=1;whiteSpace=wrap;html=1;fillColor=#FFC233;" vertex="1" parent="1">
                    <mxGeometry x="-770" y="1100" width="190" height="90" as="geometry"/>
                </mxCell>
                <mxCell id="35" value="" style="endArrow=classic;html=1;fontSize=14;" edge="1" parent="1">
                    <mxGeometry width="50" height="50" relative="1" as="geometry">
                        <mxPoint x="-80" y="1060" as="sourcePoint"/>
                        <mxPoint x="-80" y="1100" as="targetPoint"/>
                    </mxGeometry>
                </mxCell>
                <mxCell id="37" style="edgeStyle=none;html=1;fontSize=14;" edge="1" parent="1" source="36">
                    <mxGeometry relative="1" as="geometry">
                        <mxPoint x="-85" y="1230" as="targetPoint"/>
                    </mxGeometry>
                </mxCell>
                <mxCell id="36" value="&lt;b&gt;DISPLAY ADMINISTRATION PANEL&lt;/b&gt;" style="rounded=1;whiteSpace=wrap;html=1;fillColor=#FFC233;" vertex="1" parent="1">
                    <mxGeometry x="-180" y="1100" width="190" height="90" as="geometry"/>
                </mxCell>
                <mxCell id="38" value="" style="endArrow=none;html=1;fontSize=14;" edge="1" parent="1">
                    <mxGeometry width="50" height="50" relative="1" as="geometry">
                        <mxPoint x="-360" y="1230" as="sourcePoint"/>
                        <mxPoint x="160" y="1230" as="targetPoint"/>
                    </mxGeometry>
                </mxCell>
                <mxCell id="39" value="" style="endArrow=classic;html=1;fontSize=14;" edge="1" parent="1">
                    <mxGeometry width="50" height="50" relative="1" as="geometry">
                        <mxPoint x="-360" y="1230" as="sourcePoint"/>
                        <mxPoint x="-360" y="1270" as="targetPoint"/>
                    </mxGeometry>
                </mxCell>
                <mxCell id="44" style="edgeStyle=none;html=1;fontSize=14;elbow=vertical;entryX=0.536;entryY=0;entryDx=0;entryDy=0;entryPerimeter=0;" edge="1" parent="1" source="40">
                    <mxGeometry relative="1" as="geometry">
                        <mxPoint x="-359.24" y="1350" as="targetPoint"/>
                    </mxGeometry>
                </mxCell>
                <mxCell id="40" value="&lt;b&gt;ADD ADMIN&lt;/b&gt;" style="rounded=1;whiteSpace=wrap;html=1;fillColor=#FFC233;" vertex="1" parent="1">
                    <mxGeometry x="-435" y="1270" width="150" height="40" as="geometry"/>
                </mxCell>
                <mxCell id="54" style="edgeStyle=none;html=1;fontSize=14;elbow=vertical;" edge="1" parent="1" source="46">
                    <mxGeometry relative="1" as="geometry">
                        <mxPoint x="-360" y="1520" as="targetPoint"/>
                    </mxGeometry>
                </mxCell>
                <mxCell id="46" value="&lt;b&gt;SUCCESSFUL ?&lt;/b&gt;" style="rhombus;whiteSpace=wrap;html=1;fillColor=#B266FF;" vertex="1" parent="1">
                    <mxGeometry x="-440" y="1350" width="160" height="120" as="geometry"/>
                </mxCell>
                <mxCell id="47" value="" style="endArrow=none;html=1;fontSize=14;elbow=vertical;" edge="1" parent="1">
                    <mxGeometry width="50" height="50" relative="1" as="geometry">
                        <mxPoint x="-520" y="1410" as="sourcePoint"/>
                        <mxPoint x="-440" y="1410" as="targetPoint"/>
                    </mxGeometry>
                </mxCell>
                <mxCell id="48" value="" style="endArrow=none;html=1;fontSize=14;elbow=vertical;" edge="1" parent="1">
                    <mxGeometry width="50" height="50" relative="1" as="geometry">
                        <mxPoint x="-520" y="1410" as="sourcePoint"/>
                        <mxPoint x="-520" y="1150" as="targetPoint"/>
                    </mxGeometry>
                </mxCell>
                <mxCell id="50" value="" style="endArrow=classic;html=1;fontSize=14;elbow=vertical;entryX=-0.008;entryY=0.564;entryDx=0;entryDy=0;entryPerimeter=0;" edge="1" parent="1" target="36">
                    <mxGeometry width="50" height="50" relative="1" as="geometry">
                        <mxPoint x="-520" y="1150" as="sourcePoint"/>
                        <mxPoint x="-470" y="1100" as="targetPoint"/>
                    </mxGeometry>
                </mxCell>
                <mxCell id="51" value="&lt;b&gt;NO&lt;/b&gt;" style="text;strokeColor=none;align=center;fillColor=none;html=1;verticalAlign=middle;whiteSpace=wrap;rounded=0;fontSize=14;" vertex="1" parent="1">
                    <mxGeometry x="-510" y="1380" width="60" height="30" as="geometry"/>
                </mxCell>
                <mxCell id="53" value="&lt;b&gt;DISPLAY ERROR MESSAGE&lt;/b&gt;" style="rounded=1;whiteSpace=wrap;html=1;fillColor=#FFC233;" vertex="1" parent="1">
                    <mxGeometry x="-600" y="1275" width="150" height="30" as="geometry"/>
                </mxCell>
                <mxCell id="57" style="edgeStyle=none;html=1;fontSize=14;elbow=vertical;" edge="1" parent="1" source="55">
                    <mxGeometry relative="1" as="geometry">
                        <mxPoint x="-360" y="1620" as="targetPoint"/>
                    </mxGeometry>
                </mxCell>
                <mxCell id="55" value="&lt;b&gt;DISPLAY SUCCESSFUL MESSAGE&lt;/b&gt;" style="rounded=1;whiteSpace=wrap;html=1;fillColor=#FFC233;" vertex="1" parent="1">
                    <mxGeometry x="-455" y="1520" width="190" height="40" as="geometry"/>
                </mxCell>
                <mxCell id="56" value="&lt;b&gt;YES&lt;/b&gt;" style="text;strokeColor=none;align=center;fillColor=none;html=1;verticalAlign=middle;whiteSpace=wrap;rounded=0;fontSize=14;" vertex="1" parent="1">
                    <mxGeometry x="-350" y="1480" width="60" height="30" as="geometry"/>
                </mxCell>
                <mxCell id="58" value="&lt;b style=&quot;font-size: 12px;&quot;&gt;STORE ADDED DATA TO DATABASE&lt;/b&gt;" style="shape=cylinder;whiteSpace=wrap;html=1;boundedLbl=1;backgroundOutline=1;fontSize=14;fillColor=#663300;" vertex="1" parent="1">
                    <mxGeometry x="-430" y="1620" width="140" height="80" as="geometry"/>
                </mxCell>
                <mxCell id="60" value="" style="endArrow=classic;html=1;fontSize=14;elbow=vertical;" edge="1" parent="1">
                    <mxGeometry width="50" height="50" relative="1" as="geometry">
                        <mxPoint x="-95.48" y="1230" as="sourcePoint"/>
                        <mxPoint x="-95.48" y="1270" as="targetPoint"/>
                    </mxGeometry>
                </mxCell>
                <mxCell id="62" style="edgeStyle=none;html=1;fontSize=14;elbow=vertical;" edge="1" parent="1" source="61">
                    <mxGeometry relative="1" as="geometry">
                        <mxPoint x="-95" y="1350" as="targetPoint"/>
                    </mxGeometry>
                </mxCell>
                <mxCell id="61" value="&lt;b&gt;UPDATE ADMIN&lt;/b&gt;" style="rounded=1;whiteSpace=wrap;html=1;fillColor=#FFC233;" vertex="1" parent="1">
                    <mxGeometry x="-170" y="1270" width="150" height="40" as="geometry"/>
                </mxCell>
                <mxCell id="71" style="edgeStyle=none;html=1;fontSize=14;elbow=vertical;" edge="1" parent="1" source="63">
                    <mxGeometry relative="1" as="geometry">
                        <mxPoint x="-95" y="1520" as="targetPoint"/>
                    </mxGeometry>
                </mxCell>
                <mxCell id="63" value="&lt;b&gt;SUCCESSFUL ?&lt;/b&gt;" style="rhombus;whiteSpace=wrap;html=1;fillColor=#B266FF;" vertex="1" parent="1">
                    <mxGeometry x="-175" y="1350" width="160" height="120" as="geometry"/>
                </mxCell>
                <mxCell id="64" value="" style="endArrow=none;html=1;fontSize=14;elbow=vertical;" edge="1" parent="1">
                    <mxGeometry width="50" height="50" relative="1" as="geometry">
                        <mxPoint x="-240" y="1410" as="sourcePoint"/>
                        <mxPoint x="-175" y="1409.05" as="targetPoint"/>
                    </mxGeometry>
                </mxCell>
                <mxCell id="65" value="" style="endArrow=none;html=1;fontSize=14;elbow=vertical;" edge="1" parent="1">
                    <mxGeometry width="50" height="50" relative="1" as="geometry">
                        <mxPoint x="-240" y="1410" as="sourcePoint"/>
                        <mxPoint x="-240" y="1210" as="targetPoint"/>
                    </mxGeometry>
                </mxCell>
                <mxCell id="67" value="" style="endArrow=none;html=1;fontSize=14;elbow=vertical;" edge="1" parent="1">
                    <mxGeometry width="50" height="50" relative="1" as="geometry">
                        <mxPoint x="-240" y="1210" as="sourcePoint"/>
                        <mxPoint x="-120" y="1210" as="targetPoint"/>
                    </mxGeometry>
                </mxCell>
                <mxCell id="68" value="" style="endArrow=classic;html=1;fontSize=14;elbow=vertical;entryX=0.318;entryY=1.024;entryDx=0;entryDy=0;entryPerimeter=0;" edge="1" parent="1" target="36">
                    <mxGeometry width="50" height="50" relative="1" as="geometry">
                        <mxPoint x="-120" y="1210" as="sourcePoint"/>
                        <mxPoint x="-70" y="1160" as="targetPoint"/>
                    </mxGeometry>
                </mxCell>
                <mxCell id="69" value="&lt;b&gt;DISPLAY ERROR MESSAGE&lt;/b&gt;" style="rounded=1;whiteSpace=wrap;html=1;fillColor=#FFC233;" vertex="1" parent="1">
                    <mxGeometry x="-300" y="1320" width="150" height="30" as="geometry"/>
                </mxCell>
                <mxCell id="70" value="&lt;b&gt;NO&lt;/b&gt;" style="text;strokeColor=none;align=center;fillColor=none;html=1;verticalAlign=middle;whiteSpace=wrap;rounded=0;fontSize=14;" vertex="1" parent="1">
                    <mxGeometry x="-230" y="1380" width="60" height="30" as="geometry"/>
                </mxCell>
                <mxCell id="73" style="edgeStyle=none;html=1;fontSize=14;elbow=vertical;" edge="1" parent="1" source="72">
                    <mxGeometry relative="1" as="geometry">
                        <mxPoint x="-95" y="1620" as="targetPoint"/>
                    </mxGeometry>
                </mxCell>
                <mxCell id="72" value="&lt;b&gt;DISPLAY SUCCESSFUL MESSAGE&lt;/b&gt;" style="rounded=1;whiteSpace=wrap;html=1;fillColor=#FFC233;" vertex="1" parent="1">
                    <mxGeometry x="-190" y="1520" width="190" height="40" as="geometry"/>
                </mxCell>
                <mxCell id="238" style="edgeStyle=none;html=1;exitX=0.5;exitY=1;exitDx=0;exitDy=0;fontSize=14;elbow=vertical;" edge="1" parent="1" source="74">
                    <mxGeometry relative="1" as="geometry">
                        <mxPoint x="-95.28571428571422" y="1760" as="targetPoint"/>
                    </mxGeometry>
                </mxCell>
                <mxCell id="74" value="&lt;b style=&quot;font-size: 12px;&quot;&gt;MODIFY STORE DATA IN DATABASE&lt;/b&gt;" style="shape=cylinder;whiteSpace=wrap;html=1;boundedLbl=1;backgroundOutline=1;fontSize=14;fillColor=#663300;" vertex="1" parent="1">
                    <mxGeometry x="-165" y="1620" width="140" height="80" as="geometry"/>
                </mxCell>
                <mxCell id="75" value="" style="endArrow=classic;html=1;fontSize=14;elbow=vertical;" edge="1" parent="1">
                    <mxGeometry width="50" height="50" relative="1" as="geometry">
                        <mxPoint x="160" y="1230" as="sourcePoint"/>
                        <mxPoint x="160" y="1270" as="targetPoint"/>
                    </mxGeometry>
                </mxCell>
                <mxCell id="77" style="edgeStyle=none;html=1;fontSize=14;elbow=vertical;" edge="1" parent="1" source="76">
                    <mxGeometry relative="1" as="geometry">
                        <mxPoint x="155" y="1350" as="targetPoint"/>
                    </mxGeometry>
                </mxCell>
                <mxCell id="76" value="&lt;b&gt;DELETE ADMIN&lt;/b&gt;" style="rounded=1;whiteSpace=wrap;html=1;fillColor=#FFC233;" vertex="1" parent="1">
                    <mxGeometry x="80" y="1270" width="150" height="40" as="geometry"/>
                </mxCell>
                <mxCell id="80" style="edgeStyle=none;html=1;fontSize=14;elbow=vertical;" edge="1" parent="1" source="78">
                    <mxGeometry relative="1" as="geometry">
                        <mxPoint x="155" y="1520" as="targetPoint"/>
                    </mxGeometry>
                </mxCell>
                <mxCell id="78" value="&lt;b&gt;SUCCESSFUL ?&lt;/b&gt;" style="rhombus;whiteSpace=wrap;html=1;fillColor=#B266FF;" vertex="1" parent="1">
                    <mxGeometry x="75" y="1350" width="160" height="120" as="geometry"/>
                </mxCell>
                <mxCell id="79" value="&lt;b&gt;YES&lt;/b&gt;" style="text;strokeColor=none;align=center;fillColor=none;html=1;verticalAlign=middle;whiteSpace=wrap;rounded=0;fontSize=14;" vertex="1" parent="1">
                    <mxGeometry x="-85" y="1480" width="60" height="30" as="geometry"/>
                </mxCell>
                <mxCell id="94" style="edgeStyle=none;html=1;fontSize=14;elbow=vertical;" edge="1" parent="1" source="81">
                    <mxGeometry relative="1" as="geometry">
                        <mxPoint x="154.99999999999977" y="1620.0000000000002" as="targetPoint"/>
                    </mxGeometry>
                </mxCell>
                <mxCell id="81" value="&lt;b&gt;DISPLAY SUCCESSFUL MESSAGE&lt;/b&gt;" style="rounded=1;whiteSpace=wrap;html=1;fillColor=#FFC233;" vertex="1" parent="1">
                    <mxGeometry x="60" y="1520" width="190" height="40" as="geometry"/>
                </mxCell>
                <mxCell id="83" value="" style="endArrow=none;html=1;fontSize=14;elbow=vertical;" edge="1" parent="1">
                    <mxGeometry width="50" height="50" relative="1" as="geometry">
                        <mxPoint x="235" y="1408.82" as="sourcePoint"/>
                        <mxPoint x="320" y="1409" as="targetPoint"/>
                        <Array as="points">
                            <mxPoint x="275" y="1408.82"/>
                        </Array>
                    </mxGeometry>
                </mxCell>
                <mxCell id="85" value="" style="endArrow=none;html=1;fontSize=14;elbow=vertical;" edge="1" parent="1">
                    <mxGeometry width="50" height="50" relative="1" as="geometry">
                        <mxPoint x="319.41" y="1410" as="sourcePoint"/>
                        <mxPoint x="320" y="1150" as="targetPoint"/>
                    </mxGeometry>
                </mxCell>
                <mxCell id="91" value="" style="endArrow=classic;html=1;fontSize=14;elbow=vertical;entryX=1.016;entryY=0.552;entryDx=0;entryDy=0;entryPerimeter=0;" edge="1" parent="1" target="36">
                    <mxGeometry width="50" height="50" relative="1" as="geometry">
                        <mxPoint x="320" y="1150" as="sourcePoint"/>
                        <mxPoint x="370" y="1100" as="targetPoint"/>
                    </mxGeometry>
                </mxCell>
                <mxCell id="92" value="&lt;b&gt;YES&lt;/b&gt;" style="text;strokeColor=none;align=center;fillColor=none;html=1;verticalAlign=middle;whiteSpace=wrap;rounded=0;fontSize=14;" vertex="1" parent="1">
                    <mxGeometry x="160" y="1480" width="60" height="30" as="geometry"/>
                </mxCell>
                <mxCell id="93" value="&lt;b&gt;NO&lt;/b&gt;" style="text;strokeColor=none;align=center;fillColor=none;html=1;verticalAlign=middle;whiteSpace=wrap;rounded=0;fontSize=14;" vertex="1" parent="1">
                    <mxGeometry x="250" y="1380" width="60" height="30" as="geometry"/>
                </mxCell>
                <mxCell id="95" value="&lt;b style=&quot;font-size: 12px;&quot;&gt;DELETE STORED DATA IN DATABASE&lt;/b&gt;" style="shape=cylinder;whiteSpace=wrap;html=1;boundedLbl=1;backgroundOutline=1;fontSize=14;fillColor=#663300;" vertex="1" parent="1">
                    <mxGeometry x="85" y="1620" width="140" height="80" as="geometry"/>
                </mxCell>
                <mxCell id="97" value="" style="endArrow=classic;html=1;fontSize=14;elbow=vertical;" edge="1" parent="1">
                    <mxGeometry width="50" height="50" relative="1" as="geometry">
                        <mxPoint x="864.29" y="1060" as="sourcePoint"/>
                        <mxPoint x="864.29" y="1100" as="targetPoint"/>
                    </mxGeometry>
                </mxCell>
                <mxCell id="100" style="edgeStyle=none;html=1;fontSize=14;elbow=vertical;" edge="1" parent="1" source="98">
                    <mxGeometry relative="1" as="geometry">
                        <mxPoint x="865" y="1230" as="targetPoint"/>
                    </mxGeometry>
                </mxCell>
                <mxCell id="98" value="&lt;b&gt;DISPLAY CATEGORY PANEL&lt;/b&gt;" style="rounded=1;whiteSpace=wrap;html=1;fillColor=#FFC233;" vertex="1" parent="1">
                    <mxGeometry x="770" y="1100" width="190" height="90" as="geometry"/>
                </mxCell>
                <mxCell id="101" value="" style="endArrow=none;html=1;fontSize=14;elbow=vertical;" edge="1" parent="1">
                    <mxGeometry width="50" height="50" relative="1" as="geometry">
                        <mxPoint x="530" y="1230" as="sourcePoint"/>
                        <mxPoint x="1120" y="1230" as="targetPoint"/>
                    </mxGeometry>
                </mxCell>
                <mxCell id="102" value="" style="endArrow=classic;html=1;fontSize=14;elbow=vertical;" edge="1" parent="1">
                    <mxGeometry width="50" height="50" relative="1" as="geometry">
                        <mxPoint x="528.5699999999999" y="1230" as="sourcePoint"/>
                        <mxPoint x="528.5699999999999" y="1280" as="targetPoint"/>
                    </mxGeometry>
                </mxCell>
                <mxCell id="104" style="edgeStyle=none;html=1;fontSize=14;elbow=vertical;" edge="1" parent="1" source="103">
                    <mxGeometry relative="1" as="geometry">
                        <mxPoint x="535" y="1360" as="targetPoint"/>
                    </mxGeometry>
                </mxCell>
                <mxCell id="103" value="&lt;b&gt;ADD CATEGORY&lt;/b&gt;" style="rounded=1;whiteSpace=wrap;html=1;fillColor=#FFC233;" vertex="1" parent="1">
                    <mxGeometry x="460" y="1280" width="150" height="40" as="geometry"/>
                </mxCell>
                <mxCell id="115" style="edgeStyle=none;html=1;fontSize=14;elbow=vertical;" edge="1" parent="1" source="105">
                    <mxGeometry relative="1" as="geometry">
                        <mxPoint x="535" y="1520" as="targetPoint"/>
                    </mxGeometry>
                </mxCell>
                <mxCell id="105" value="&lt;b&gt;SUCCESSFUL ?&lt;/b&gt;" style="rhombus;whiteSpace=wrap;html=1;fillColor=#B266FF;" vertex="1" parent="1">
                    <mxGeometry x="455" y="1360" width="160" height="120" as="geometry"/>
                </mxCell>
                <mxCell id="107" value="" style="endArrow=none;html=1;fontSize=14;elbow=vertical;" edge="1" parent="1">
                    <mxGeometry width="50" height="50" relative="1" as="geometry">
                        <mxPoint x="410" y="1419" as="sourcePoint"/>
                        <mxPoint x="455" y="1419.29" as="targetPoint"/>
                    </mxGeometry>
                </mxCell>
                <mxCell id="109" value="" style="endArrow=none;html=1;fontSize=14;elbow=vertical;" edge="1" parent="1">
                    <mxGeometry width="50" height="50" relative="1" as="geometry">
                        <mxPoint x="408.57" y="1420" as="sourcePoint"/>
                        <mxPoint x="409" y="1150" as="targetPoint"/>
                    </mxGeometry>
                </mxCell>
                <mxCell id="111" value="" style="endArrow=classic;html=1;fontSize=14;elbow=vertical;" edge="1" parent="1">
                    <mxGeometry width="50" height="50" relative="1" as="geometry">
                        <mxPoint x="410" y="1150" as="sourcePoint"/>
                        <mxPoint x="770" y="1150" as="targetPoint"/>
                    </mxGeometry>
                </mxCell>
                <mxCell id="114" value="&lt;b&gt;DISPLAY ERROR MESSAGE&lt;/b&gt;" style="rounded=1;whiteSpace=wrap;html=1;fillColor=#FFC233;" vertex="1" parent="1">
                    <mxGeometry x="340" y="1180" width="150" height="30" as="geometry"/>
                </mxCell>
                <mxCell id="120" style="edgeStyle=none;html=1;fontSize=14;elbow=vertical;" edge="1" parent="1" source="116">
                    <mxGeometry relative="1" as="geometry">
                        <mxPoint x="535" y="1630" as="targetPoint"/>
                    </mxGeometry>
                </mxCell>
                <mxCell id="116" value="&lt;b&gt;DISPLAY SUCCESSFUL MESSAGE&lt;/b&gt;" style="rounded=1;whiteSpace=wrap;html=1;fillColor=#FFC233;" vertex="1" parent="1">
                    <mxGeometry x="440" y="1520" width="190" height="40" as="geometry"/>
                </mxCell>
                <mxCell id="118" value="&lt;b&gt;NO&lt;/b&gt;" style="text;strokeColor=none;align=center;fillColor=none;html=1;verticalAlign=middle;whiteSpace=wrap;rounded=0;fontSize=14;" vertex="1" parent="1">
                    <mxGeometry x="410" y="1390" width="60" height="30" as="geometry"/>
                </mxCell>
                <mxCell id="119" value="&lt;b&gt;YES&lt;/b&gt;" style="text;strokeColor=none;align=center;fillColor=none;html=1;verticalAlign=middle;whiteSpace=wrap;rounded=0;fontSize=14;" vertex="1" parent="1">
                    <mxGeometry x="540" y="1480" width="60" height="30" as="geometry"/>
                </mxCell>
                <mxCell id="121" value="&lt;b style=&quot;font-size: 12px;&quot;&gt;STORE ADDED DATA TO DATABASE&lt;/b&gt;" style="shape=cylinder;whiteSpace=wrap;html=1;boundedLbl=1;backgroundOutline=1;fontSize=14;fillColor=#663300;" vertex="1" parent="1">
                    <mxGeometry x="465" y="1630" width="140" height="80" as="geometry"/>
                </mxCell>
                <mxCell id="124" value="" style="endArrow=classic;html=1;fontSize=14;elbow=vertical;" edge="1" parent="1">
                    <mxGeometry width="50" height="50" relative="1" as="geometry">
                        <mxPoint x="854.29" y="1230" as="sourcePoint"/>
                        <mxPoint x="854.29" y="1280" as="targetPoint"/>
                    </mxGeometry>
                </mxCell>
                <mxCell id="126" style="edgeStyle=none;html=1;fontSize=14;elbow=vertical;" edge="1" parent="1" source="125">
                    <mxGeometry relative="1" as="geometry">
                        <mxPoint x="855" y="1360" as="targetPoint"/>
                    </mxGeometry>
                </mxCell>
                <mxCell id="125" value="&lt;b&gt;UPDATE CATEGORY&lt;/b&gt;" style="rounded=1;whiteSpace=wrap;html=1;fillColor=#FFC233;" vertex="1" parent="1">
                    <mxGeometry x="780" y="1280" width="150" height="40" as="geometry"/>
                </mxCell>
                <mxCell id="136" style="edgeStyle=none;html=1;fontSize=14;elbow=vertical;" edge="1" parent="1" source="127">
                    <mxGeometry relative="1" as="geometry">
                        <mxPoint x="855" y="1520" as="targetPoint"/>
                    </mxGeometry>
                </mxCell>
                <mxCell id="127" value="&lt;b&gt;SUCCESSFUL ?&lt;/b&gt;" style="rhombus;whiteSpace=wrap;html=1;fillColor=#B266FF;" vertex="1" parent="1">
                    <mxGeometry x="775" y="1360" width="160" height="120" as="geometry"/>
                </mxCell>
                <mxCell id="131" value="" style="endArrow=none;html=1;fontSize=14;elbow=vertical;" edge="1" parent="1">
                    <mxGeometry width="50" height="50" relative="1" as="geometry">
                        <mxPoint x="700" y="1420" as="sourcePoint"/>
                        <mxPoint x="775" y="1420" as="targetPoint"/>
                    </mxGeometry>
                </mxCell>
                <mxCell id="132" value="" style="endArrow=none;html=1;fontSize=14;elbow=vertical;" edge="1" parent="1">
                    <mxGeometry width="50" height="50" relative="1" as="geometry">
                        <mxPoint x="700" y="1420" as="sourcePoint"/>
                        <mxPoint x="700" y="1210" as="targetPoint"/>
                    </mxGeometry>
                </mxCell>
                <mxCell id="133" value="" style="endArrow=none;html=1;fontSize=14;elbow=vertical;" edge="1" parent="1">
                    <mxGeometry width="50" height="50" relative="1" as="geometry">
                        <mxPoint x="700" y="1210" as="sourcePoint"/>
                        <mxPoint x="820" y="1210" as="targetPoint"/>
                    </mxGeometry>
                </mxCell>
                <mxCell id="134" value="" style="endArrow=classic;html=1;fontSize=14;elbow=vertical;" edge="1" parent="1">
                    <mxGeometry width="50" height="50" relative="1" as="geometry">
                        <mxPoint x="820" y="1210" as="sourcePoint"/>
                        <mxPoint x="820" y="1190" as="targetPoint"/>
                    </mxGeometry>
                </mxCell>
                <mxCell id="135" value="&lt;b&gt;DISPLAY ERROR MESSAGE&lt;/b&gt;" style="rounded=1;whiteSpace=wrap;html=1;fillColor=#FFC233;" vertex="1" parent="1">
                    <mxGeometry x="625" y="1320" width="150" height="40" as="geometry"/>
                </mxCell>
                <mxCell id="140" style="edgeStyle=none;html=1;fontSize=14;elbow=vertical;" edge="1" parent="1" source="137">
                    <mxGeometry relative="1" as="geometry">
                        <mxPoint x="855" y="1630" as="targetPoint"/>
                    </mxGeometry>
                </mxCell>
                <mxCell id="137" value="&lt;b&gt;DISPLAY SUCCESSFUL MESSAGE&lt;/b&gt;" style="rounded=1;whiteSpace=wrap;html=1;fillColor=#FFC233;" vertex="1" parent="1">
                    <mxGeometry x="760" y="1520" width="190" height="40" as="geometry"/>
                </mxCell>
                <mxCell id="138" value="&lt;b&gt;NO&lt;/b&gt;" style="text;strokeColor=none;align=center;fillColor=none;html=1;verticalAlign=middle;whiteSpace=wrap;rounded=0;fontSize=14;" vertex="1" parent="1">
                    <mxGeometry x="715" y="1390" width="60" height="30" as="geometry"/>
                </mxCell>
                <mxCell id="139" value="&lt;b&gt;YES&lt;/b&gt;" style="text;strokeColor=none;align=center;fillColor=none;html=1;verticalAlign=middle;whiteSpace=wrap;rounded=0;fontSize=14;" vertex="1" parent="1">
                    <mxGeometry x="860" y="1480" width="60" height="30" as="geometry"/>
                </mxCell>
                <mxCell id="246" style="edgeStyle=none;html=1;fontSize=24;elbow=vertical;" edge="1" parent="1" source="141">
                    <mxGeometry relative="1" as="geometry">
                        <mxPoint x="855" y="1760" as="targetPoint"/>
                    </mxGeometry>
                </mxCell>
                <mxCell id="141" value="&lt;b style=&quot;font-size: 12px;&quot;&gt;MODIFY STORE DATA IN DATABASE&lt;/b&gt;" style="shape=cylinder;whiteSpace=wrap;html=1;boundedLbl=1;backgroundOutline=1;fontSize=14;fillColor=#663300;" vertex="1" parent="1">
                    <mxGeometry x="785" y="1630" width="140" height="80" as="geometry"/>
                </mxCell>
                <mxCell id="142" value="" style="endArrow=classic;html=1;fontSize=14;elbow=vertical;" edge="1" parent="1">
                    <mxGeometry width="50" height="50" relative="1" as="geometry">
                        <mxPoint x="1120" y="1230" as="sourcePoint"/>
                        <mxPoint x="1120" y="1280" as="targetPoint"/>
                    </mxGeometry>
                </mxCell>
                <mxCell id="144" style="edgeStyle=none;html=1;fontSize=14;elbow=vertical;" edge="1" parent="1" source="143">
                    <mxGeometry relative="1" as="geometry">
                        <mxPoint x="1115" y="1360" as="targetPoint"/>
                    </mxGeometry>
                </mxCell>
                <mxCell id="143" value="&lt;b&gt;DELETE CATEGORY&lt;/b&gt;" style="rounded=1;whiteSpace=wrap;html=1;fillColor=#FFC233;" vertex="1" parent="1">
                    <mxGeometry x="1040" y="1280" width="150" height="40" as="geometry"/>
                </mxCell>
                <mxCell id="146" style="edgeStyle=none;html=1;fontSize=14;elbow=vertical;" edge="1" parent="1" source="145">
                    <mxGeometry relative="1" as="geometry">
                        <mxPoint x="1115" y="1520" as="targetPoint"/>
                    </mxGeometry>
                </mxCell>
                <mxCell id="145" value="&lt;b&gt;SUCCESSFUL ?&lt;/b&gt;" style="rhombus;whiteSpace=wrap;html=1;fillColor=#B266FF;" vertex="1" parent="1">
                    <mxGeometry x="1035" y="1360" width="160" height="120" as="geometry"/>
                </mxCell>
                <mxCell id="154" style="edgeStyle=none;html=1;fontSize=14;elbow=vertical;" edge="1" parent="1" source="147">
                    <mxGeometry relative="1" as="geometry">
                        <mxPoint x="1115" y="1630" as="targetPoint"/>
                    </mxGeometry>
                </mxCell>
                <mxCell id="147" value="&lt;b&gt;DISPLAY SUCCESSFUL MESSAGE&lt;/b&gt;" style="rounded=1;whiteSpace=wrap;html=1;fillColor=#FFC233;" vertex="1" parent="1">
                    <mxGeometry x="1020" y="1520" width="190" height="40" as="geometry"/>
                </mxCell>
                <mxCell id="148" value="" style="endArrow=none;html=1;fontSize=14;elbow=vertical;" edge="1" parent="1">
                    <mxGeometry width="50" height="50" relative="1" as="geometry">
                        <mxPoint x="1195" y="1420" as="sourcePoint"/>
                        <mxPoint x="1290" y="1420" as="targetPoint"/>
                    </mxGeometry>
                </mxCell>
                <mxCell id="149" value="" style="endArrow=none;html=1;fontSize=14;elbow=vertical;" edge="1" parent="1">
                    <mxGeometry width="50" height="50" relative="1" as="geometry">
                        <mxPoint x="1290" y="1420" as="sourcePoint"/>
                        <mxPoint x="1290" y="1150" as="targetPoint"/>
                    </mxGeometry>
                </mxCell>
                <mxCell id="151" value="" style="endArrow=classic;html=1;fontSize=14;elbow=vertical;" edge="1" parent="1">
                    <mxGeometry width="50" height="50" relative="1" as="geometry">
                        <mxPoint x="1290" y="1150" as="sourcePoint"/>
                        <mxPoint x="960" y="1150" as="targetPoint"/>
                    </mxGeometry>
                </mxCell>
                <mxCell id="152" value="&lt;b&gt;NO&lt;/b&gt;" style="text;strokeColor=none;align=center;fillColor=none;html=1;verticalAlign=middle;whiteSpace=wrap;rounded=0;fontSize=14;" vertex="1" parent="1">
                    <mxGeometry x="1220" y="1390" width="60" height="30" as="geometry"/>
                </mxCell>
                <mxCell id="153" value="&lt;b&gt;YES&lt;/b&gt;" style="text;strokeColor=none;align=center;fillColor=none;html=1;verticalAlign=middle;whiteSpace=wrap;rounded=0;fontSize=14;" vertex="1" parent="1">
                    <mxGeometry x="1130" y="1480" width="60" height="30" as="geometry"/>
                </mxCell>
                <mxCell id="155" value="&lt;b style=&quot;font-size: 12px;&quot;&gt;DELETE STORED DATA IN DATABASE&lt;/b&gt;" style="shape=cylinder;whiteSpace=wrap;html=1;boundedLbl=1;backgroundOutline=1;fontSize=14;fillColor=#663300;" vertex="1" parent="1">
                    <mxGeometry x="1045" y="1630" width="140" height="80" as="geometry"/>
                </mxCell>
                <mxCell id="156" value="" style="endArrow=classic;html=1;fontSize=14;elbow=vertical;" edge="1" parent="1">
                    <mxGeometry width="50" height="50" relative="1" as="geometry">
                        <mxPoint x="1974.29" y="1060" as="sourcePoint"/>
                        <mxPoint x="1974.29" y="1100" as="targetPoint"/>
                    </mxGeometry>
                </mxCell>
                <mxCell id="161" style="edgeStyle=none;html=1;fontSize=14;elbow=vertical;" edge="1" parent="1" source="157">
                    <mxGeometry relative="1" as="geometry">
                        <mxPoint x="1975" y="1230" as="targetPoint"/>
                    </mxGeometry>
                </mxCell>
                <mxCell id="157" value="&lt;b&gt;DISPLAY FOOD PANEL&lt;/b&gt;" style="rounded=1;whiteSpace=wrap;html=1;fillColor=#FFC233;" vertex="1" parent="1">
                    <mxGeometry x="1880" y="1100" width="190" height="90" as="geometry"/>
                </mxCell>
                <mxCell id="159" value="" style="endArrow=none;html=1;fontSize=14;elbow=vertical;" edge="1" parent="1">
                    <mxGeometry width="50" height="50" relative="1" as="geometry">
                        <mxPoint x="1600" y="1230" as="sourcePoint"/>
                        <mxPoint x="2250" y="1230" as="targetPoint"/>
                    </mxGeometry>
                </mxCell>
                <mxCell id="162" value="" style="endArrow=classic;html=1;fontSize=14;elbow=vertical;" edge="1" parent="1">
                    <mxGeometry width="50" height="50" relative="1" as="geometry">
                        <mxPoint x="1600" y="1230" as="sourcePoint"/>
                        <mxPoint x="1600" y="1280" as="targetPoint"/>
                    </mxGeometry>
                </mxCell>
                <mxCell id="164" style="edgeStyle=none;html=1;fontSize=14;elbow=vertical;" edge="1" parent="1" source="163">
                    <mxGeometry relative="1" as="geometry">
                        <mxPoint x="1595" y="1370" as="targetPoint"/>
                    </mxGeometry>
                </mxCell>
                <mxCell id="163" value="&lt;b&gt;ADD FOOD&lt;/b&gt;" style="rounded=1;whiteSpace=wrap;html=1;fillColor=#FFC233;" vertex="1" parent="1">
                    <mxGeometry x="1520" y="1280" width="150" height="40" as="geometry"/>
                </mxCell>
                <mxCell id="170" style="edgeStyle=none;html=1;fontSize=14;elbow=vertical;" edge="1" parent="1" source="165">
                    <mxGeometry relative="1" as="geometry">
                        <mxPoint x="1595" y="1530" as="targetPoint"/>
                    </mxGeometry>
                </mxCell>
                <mxCell id="165" value="&lt;b&gt;SUCCESSFUL ?&lt;/b&gt;" style="rhombus;whiteSpace=wrap;html=1;fillColor=#B266FF;" vertex="1" parent="1">
                    <mxGeometry x="1515" y="1370" width="160" height="120" as="geometry"/>
                </mxCell>
                <mxCell id="166" value="" style="endArrow=none;html=1;fontSize=14;elbow=vertical;" edge="1" parent="1">
                    <mxGeometry width="50" height="50" relative="1" as="geometry">
                        <mxPoint x="1430" y="1429.29" as="sourcePoint"/>
                        <mxPoint x="1520" y="1429.29" as="targetPoint"/>
                    </mxGeometry>
                </mxCell>
                <mxCell id="167" value="" style="endArrow=none;html=1;fontSize=14;elbow=vertical;" edge="1" parent="1">
                    <mxGeometry width="50" height="50" relative="1" as="geometry">
                        <mxPoint x="1430" y="1430" as="sourcePoint"/>
                        <mxPoint x="1430" y="1150" as="targetPoint"/>
                    </mxGeometry>
                </mxCell>
                <mxCell id="169" value="" style="endArrow=classic;html=1;fontSize=14;elbow=vertical;entryX=0;entryY=0.5;entryDx=0;entryDy=0;" edge="1" parent="1" target="157">
                    <mxGeometry width="50" height="50" relative="1" as="geometry">
                        <mxPoint x="1430" y="1145" as="sourcePoint"/>
                        <mxPoint x="1480" y="1100" as="targetPoint"/>
                    </mxGeometry>
                </mxCell>
                <mxCell id="199" style="edgeStyle=none;html=1;fontSize=14;elbow=vertical;" edge="1" parent="1" source="171">
                    <mxGeometry relative="1" as="geometry">
                        <mxPoint x="1595" y="1640" as="targetPoint"/>
                    </mxGeometry>
                </mxCell>
                <mxCell id="171" value="&lt;b&gt;DISPLAY SUCCESSFUL MESSAGE&lt;/b&gt;" style="rounded=1;whiteSpace=wrap;html=1;fillColor=#FFC233;" vertex="1" parent="1">
                    <mxGeometry x="1500" y="1530" width="190" height="40" as="geometry"/>
                </mxCell>
                <mxCell id="172" value="&lt;b&gt;NO&lt;/b&gt;" style="text;strokeColor=none;align=center;fillColor=none;html=1;verticalAlign=middle;whiteSpace=wrap;rounded=0;fontSize=14;" vertex="1" parent="1">
                    <mxGeometry x="1450" y="1390" width="60" height="30" as="geometry"/>
                </mxCell>
                <mxCell id="173" value="&lt;b&gt;YES&lt;/b&gt;" style="text;strokeColor=none;align=center;fillColor=none;html=1;verticalAlign=middle;whiteSpace=wrap;rounded=0;fontSize=14;" vertex="1" parent="1">
                    <mxGeometry x="1610" y="1490" width="60" height="30" as="geometry"/>
                </mxCell>
                <mxCell id="174" value="&lt;b&gt;DISPLAY ERROR MESSAGE&lt;/b&gt;" style="rounded=1;whiteSpace=wrap;html=1;fillColor=#FFC233;" vertex="1" parent="1">
                    <mxGeometry x="1350" y="1240" width="150" height="30" as="geometry"/>
                </mxCell>
                <mxCell id="175" value="" style="endArrow=classic;html=1;fontSize=14;elbow=vertical;" edge="1" parent="1">
                    <mxGeometry width="50" height="50" relative="1" as="geometry">
                        <mxPoint x="1950" y="1230" as="sourcePoint"/>
                        <mxPoint x="1950" y="1280" as="targetPoint"/>
                    </mxGeometry>
                </mxCell>
                <mxCell id="177" style="edgeStyle=none;html=1;fontSize=14;elbow=vertical;" edge="1" parent="1" source="176">
                    <mxGeometry relative="1" as="geometry">
                        <mxPoint x="1945" y="1370" as="targetPoint"/>
                    </mxGeometry>
                </mxCell>
                <mxCell id="176" value="&lt;b&gt;UPDATE FOOD&lt;/b&gt;" style="rounded=1;whiteSpace=wrap;html=1;fillColor=#FFC233;" vertex="1" parent="1">
                    <mxGeometry x="1870" y="1280" width="150" height="40" as="geometry"/>
                </mxCell>
                <mxCell id="185" style="edgeStyle=none;html=1;fontSize=14;elbow=vertical;" edge="1" parent="1" source="178">
                    <mxGeometry relative="1" as="geometry">
                        <mxPoint x="1945" y="1530" as="targetPoint"/>
                    </mxGeometry>
                </mxCell>
                <mxCell id="178" value="&lt;b&gt;SUCCESSFUL ?&lt;/b&gt;" style="rhombus;whiteSpace=wrap;html=1;fillColor=#B266FF;" vertex="1" parent="1">
                    <mxGeometry x="1865" y="1370" width="160" height="120" as="geometry"/>
                </mxCell>
                <mxCell id="180" value="" style="endArrow=none;html=1;fontSize=14;elbow=vertical;" edge="1" parent="1">
                    <mxGeometry width="50" height="50" relative="1" as="geometry">
                        <mxPoint x="1780" y="1429.29" as="sourcePoint"/>
                        <mxPoint x="1870" y="1429.29" as="targetPoint"/>
                    </mxGeometry>
                </mxCell>
                <mxCell id="181" value="" style="endArrow=none;html=1;fontSize=14;elbow=vertical;" edge="1" parent="1">
                    <mxGeometry width="50" height="50" relative="1" as="geometry">
                        <mxPoint x="1780" y="1430" as="sourcePoint"/>
                        <mxPoint x="1780" y="1210" as="targetPoint"/>
                    </mxGeometry>
                </mxCell>
                <mxCell id="182" value="" style="endArrow=none;html=1;fontSize=14;elbow=vertical;" edge="1" parent="1">
                    <mxGeometry width="50" height="50" relative="1" as="geometry">
                        <mxPoint x="1780" y="1210" as="sourcePoint"/>
                        <mxPoint x="1920" y="1210" as="targetPoint"/>
                    </mxGeometry>
                </mxCell>
                <mxCell id="183" value="" style="endArrow=classic;html=1;fontSize=14;elbow=vertical;" edge="1" parent="1">
                    <mxGeometry width="50" height="50" relative="1" as="geometry">
                        <mxPoint x="1920" y="1210" as="sourcePoint"/>
                        <mxPoint x="1920" y="1190" as="targetPoint"/>
                    </mxGeometry>
                </mxCell>
                <mxCell id="184" value="&lt;b&gt;DISPLAY ERROR MESSAGE&lt;/b&gt;" style="rounded=1;whiteSpace=wrap;html=1;fillColor=#FFC233;" vertex="1" parent="1">
                    <mxGeometry x="1700" y="1320" width="150" height="30" as="geometry"/>
                </mxCell>
                <mxCell id="200" style="edgeStyle=none;html=1;fontSize=14;elbow=vertical;" edge="1" parent="1" source="186">
                    <mxGeometry relative="1" as="geometry">
                        <mxPoint x="1945" y="1640" as="targetPoint"/>
                    </mxGeometry>
                </mxCell>
                <mxCell id="186" value="&lt;b&gt;DISPLAY SUCCESSFUL MESSAGE&lt;/b&gt;" style="rounded=1;whiteSpace=wrap;html=1;fillColor=#FFC233;" vertex="1" parent="1">
                    <mxGeometry x="1850" y="1530" width="190" height="40" as="geometry"/>
                </mxCell>
                <mxCell id="187" value="&lt;b&gt;NO&lt;/b&gt;" style="text;strokeColor=none;align=center;fillColor=none;html=1;verticalAlign=middle;whiteSpace=wrap;rounded=0;fontSize=14;" vertex="1" parent="1">
                    <mxGeometry x="1805" y="1395" width="60" height="30" as="geometry"/>
                </mxCell>
                <mxCell id="188" value="&lt;b&gt;YES&lt;/b&gt;" style="text;strokeColor=none;align=center;fillColor=none;html=1;verticalAlign=middle;whiteSpace=wrap;rounded=0;fontSize=14;" vertex="1" parent="1">
                    <mxGeometry x="1970" y="1480" width="60" height="30" as="geometry"/>
                </mxCell>
                <mxCell id="189" value="" style="endArrow=classic;html=1;fontSize=14;elbow=vertical;" edge="1" parent="1">
                    <mxGeometry width="50" height="50" relative="1" as="geometry">
                        <mxPoint x="2250" y="1230" as="sourcePoint"/>
                        <mxPoint x="2250" y="1280" as="targetPoint"/>
                    </mxGeometry>
                </mxCell>
                <mxCell id="191" style="edgeStyle=none;html=1;fontSize=14;elbow=vertical;" edge="1" parent="1" source="190">
                    <mxGeometry relative="1" as="geometry">
                        <mxPoint x="2245" y="1370" as="targetPoint"/>
                    </mxGeometry>
                </mxCell>
                <mxCell id="190" value="&lt;b&gt;DELETE FOOD&lt;/b&gt;" style="rounded=1;whiteSpace=wrap;html=1;fillColor=#FFC233;" vertex="1" parent="1">
                    <mxGeometry x="2170" y="1280" width="150" height="40" as="geometry"/>
                </mxCell>
                <mxCell id="197" style="edgeStyle=none;html=1;fontSize=14;elbow=vertical;" edge="1" parent="1" source="192">
                    <mxGeometry relative="1" as="geometry">
                        <mxPoint x="2245" y="1530" as="targetPoint"/>
                    </mxGeometry>
                </mxCell>
                <mxCell id="192" value="&lt;b&gt;SUCCESSFUL ?&lt;/b&gt;" style="rhombus;whiteSpace=wrap;html=1;fillColor=#B266FF;" vertex="1" parent="1">
                    <mxGeometry x="2165" y="1370" width="160" height="120" as="geometry"/>
                </mxCell>
                <mxCell id="193" value="" style="endArrow=none;html=1;fontSize=14;elbow=vertical;" edge="1" parent="1">
                    <mxGeometry width="50" height="50" relative="1" as="geometry">
                        <mxPoint x="2325" y="1429.29" as="sourcePoint"/>
                        <mxPoint x="2420" y="1429" as="targetPoint"/>
                    </mxGeometry>
                </mxCell>
                <mxCell id="194" value="" style="endArrow=none;html=1;fontSize=14;elbow=vertical;" edge="1" parent="1">
                    <mxGeometry width="50" height="50" relative="1" as="geometry">
                        <mxPoint x="2420" y="1430" as="sourcePoint"/>
                        <mxPoint x="2420" y="1150" as="targetPoint"/>
                    </mxGeometry>
                </mxCell>
                <mxCell id="195" value="" style="endArrow=classic;html=1;fontSize=14;elbow=vertical;entryX=1;entryY=0.5;entryDx=0;entryDy=0;" edge="1" parent="1" target="157">
                    <mxGeometry width="50" height="50" relative="1" as="geometry">
                        <mxPoint x="2420" y="1145" as="sourcePoint"/>
                        <mxPoint x="2470" y="1100" as="targetPoint"/>
                    </mxGeometry>
                </mxCell>
                <mxCell id="201" style="edgeStyle=none;html=1;fontSize=14;elbow=vertical;" edge="1" parent="1" source="198">
                    <mxGeometry relative="1" as="geometry">
                        <mxPoint x="2245" y="1640" as="targetPoint"/>
                    </mxGeometry>
                </mxCell>
                <mxCell id="198" value="&lt;b&gt;DISPLAY SUCCESSFUL MESSAGE&lt;/b&gt;" style="rounded=1;whiteSpace=wrap;html=1;fillColor=#FFC233;" vertex="1" parent="1">
                    <mxGeometry x="2150" y="1530" width="190" height="40" as="geometry"/>
                </mxCell>
                <mxCell id="202" value="&lt;b style=&quot;font-size: 12px;&quot;&gt;STORE ADDED DATA TO DATABASE&lt;/b&gt;" style="shape=cylinder;whiteSpace=wrap;html=1;boundedLbl=1;backgroundOutline=1;fontSize=14;fillColor=#663300;" vertex="1" parent="1">
                    <mxGeometry x="1525" y="1640" width="140" height="80" as="geometry"/>
                </mxCell>
                <mxCell id="253" style="edgeStyle=none;html=1;fontSize=24;elbow=vertical;" edge="1" parent="1" source="203">
                    <mxGeometry relative="1" as="geometry">
                        <mxPoint x="1945" y="1760" as="targetPoint"/>
                    </mxGeometry>
                </mxCell>
                <mxCell id="203" value="&lt;b style=&quot;font-size: 12px;&quot;&gt;MODIFY STORE DATA IN DATABASE&lt;/b&gt;" style="shape=cylinder;whiteSpace=wrap;html=1;boundedLbl=1;backgroundOutline=1;fontSize=14;fillColor=#663300;" vertex="1" parent="1">
                    <mxGeometry x="1875" y="1640" width="140" height="80" as="geometry"/>
                </mxCell>
                <mxCell id="204" value="&lt;b style=&quot;font-size: 12px;&quot;&gt;DELETE STORED DATA IN DATABASE&lt;/b&gt;" style="shape=cylinder;whiteSpace=wrap;html=1;boundedLbl=1;backgroundOutline=1;fontSize=14;fillColor=#663300;" vertex="1" parent="1">
                    <mxGeometry x="2175" y="1640" width="140" height="80" as="geometry"/>
                </mxCell>
                <mxCell id="205" value="&lt;b&gt;NO&lt;/b&gt;" style="text;strokeColor=none;align=center;fillColor=none;html=1;verticalAlign=middle;whiteSpace=wrap;rounded=0;fontSize=14;" vertex="1" parent="1">
                    <mxGeometry x="2340" y="1395" width="60" height="30" as="geometry"/>
                </mxCell>
                <mxCell id="206" value="&lt;b&gt;YES&lt;/b&gt;" style="text;strokeColor=none;align=center;fillColor=none;html=1;verticalAlign=middle;whiteSpace=wrap;rounded=0;fontSize=14;" vertex="1" parent="1">
                    <mxGeometry x="2265" y="1480" width="60" height="30" as="geometry"/>
                </mxCell>
                <mxCell id="207" value="" style="endArrow=classic;html=1;fontSize=14;elbow=vertical;" edge="1" parent="1">
                    <mxGeometry width="50" height="50" relative="1" as="geometry">
                        <mxPoint x="2814.29" y="1060" as="sourcePoint"/>
                        <mxPoint x="2814.29" y="1100" as="targetPoint"/>
                    </mxGeometry>
                </mxCell>
                <mxCell id="213" value="" style="edgeStyle=none;html=1;fontSize=14;elbow=vertical;" edge="1" parent="1" source="209">
                    <mxGeometry relative="1" as="geometry">
                        <mxPoint x="2815" y="1240" as="targetPoint"/>
                    </mxGeometry>
                </mxCell>
                <mxCell id="209" value="&lt;b&gt;DISPLAY ORDER PANEL&lt;/b&gt;" style="rounded=1;whiteSpace=wrap;html=1;fillColor=#FFC233;" vertex="1" parent="1">
                    <mxGeometry x="2720" y="1100" width="190" height="90" as="geometry"/>
                </mxCell>
                <mxCell id="214" style="edgeStyle=none;html=1;fontSize=14;elbow=vertical;" edge="1" parent="1" source="212">
                    <mxGeometry relative="1" as="geometry">
                        <mxPoint x="2815" y="1330" as="targetPoint"/>
                    </mxGeometry>
                </mxCell>
                <mxCell id="212" value="&lt;b&gt;UPDATE ORDER&lt;/b&gt;" style="rounded=1;whiteSpace=wrap;html=1;fillColor=#FFC233;" vertex="1" parent="1">
                    <mxGeometry x="2740" y="1240" width="150" height="40" as="geometry"/>
                </mxCell>
                <mxCell id="216" style="edgeStyle=none;html=1;fontSize=14;elbow=vertical;" edge="1" parent="1" source="215">
                    <mxGeometry relative="1" as="geometry">
                        <mxPoint x="2815" y="1510" as="targetPoint"/>
                    </mxGeometry>
                </mxCell>
                <mxCell id="215" value="&lt;b&gt;SUCCESSFUL ?&lt;/b&gt;" style="rhombus;whiteSpace=wrap;html=1;fillColor=#B266FF;" vertex="1" parent="1">
                    <mxGeometry x="2735" y="1330" width="160" height="120" as="geometry"/>
                </mxCell>
                <mxCell id="223" style="edgeStyle=none;html=1;fontSize=14;elbow=vertical;" edge="1" parent="1" source="217">
                    <mxGeometry relative="1" as="geometry">
                        <mxPoint x="2815" y="1610" as="targetPoint"/>
                    </mxGeometry>
                </mxCell>
                <mxCell id="217" value="&lt;b&gt;DISPLAY SUCCESSFUL MESSAGE&lt;/b&gt;" style="rounded=1;whiteSpace=wrap;html=1;fillColor=#FFC233;" vertex="1" parent="1">
                    <mxGeometry x="2720" y="1510" width="190" height="40" as="geometry"/>
                </mxCell>
                <mxCell id="218" value="" style="endArrow=none;html=1;fontSize=14;elbow=vertical;" edge="1" parent="1">
                    <mxGeometry width="50" height="50" relative="1" as="geometry">
                        <mxPoint x="2600" y="1530" as="sourcePoint"/>
                        <mxPoint x="2720" y="1530" as="targetPoint"/>
                    </mxGeometry>
                </mxCell>
                <mxCell id="219" value="" style="endArrow=none;html=1;fontSize=14;elbow=vertical;" edge="1" parent="1">
                    <mxGeometry width="50" height="50" relative="1" as="geometry">
                        <mxPoint x="2600" y="1530" as="sourcePoint"/>
                        <mxPoint x="2600" y="1150" as="targetPoint"/>
                    </mxGeometry>
                </mxCell>
                <mxCell id="220" value="" style="endArrow=classic;html=1;fontSize=14;elbow=vertical;" edge="1" parent="1">
                    <mxGeometry width="50" height="50" relative="1" as="geometry">
                        <mxPoint x="2600" y="1150" as="sourcePoint"/>
                        <mxPoint x="2720" y="1150" as="targetPoint"/>
                    </mxGeometry>
                </mxCell>
                <mxCell id="222" value="&lt;b&gt;NO&lt;/b&gt;" style="text;strokeColor=none;align=center;fillColor=none;html=1;verticalAlign=middle;whiteSpace=wrap;rounded=0;fontSize=14;" vertex="1" parent="1">
                    <mxGeometry x="2620" y="1490" width="60" height="30" as="geometry"/>
                </mxCell>
                <mxCell id="259" style="edgeStyle=none;html=1;fontSize=24;elbow=vertical;" edge="1" parent="1" source="224">
                    <mxGeometry relative="1" as="geometry">
                        <mxPoint x="2815" y="1730" as="targetPoint"/>
                    </mxGeometry>
                </mxCell>
                <mxCell id="224" value="&lt;b style=&quot;font-size: 12px;&quot;&gt;MODIFY STORE DATA IN DATABASE&lt;/b&gt;" style="shape=cylinder;whiteSpace=wrap;html=1;boundedLbl=1;backgroundOutline=1;fontSize=14;fillColor=#663300;" vertex="1" parent="1">
                    <mxGeometry x="2745" y="1610" width="140" height="80" as="geometry"/>
                </mxCell>
                <mxCell id="225" value="&lt;b&gt;DISPLAY ERROR MESSAGE&lt;/b&gt;" style="rounded=1;whiteSpace=wrap;html=1;fillColor=#FFC233;" vertex="1" parent="1">
                    <mxGeometry x="2530" y="1320" width="150" height="30" as="geometry"/>
                </mxCell>
                <mxCell id="226" value="" style="endArrow=classic;html=1;fontSize=14;elbow=vertical;" edge="1" parent="1">
                    <mxGeometry width="50" height="50" relative="1" as="geometry">
                        <mxPoint x="3360" y="1060" as="sourcePoint"/>
                        <mxPoint x="3360" y="1100" as="targetPoint"/>
                    </mxGeometry>
                </mxCell>
                <mxCell id="227" value="&lt;b&gt;LOG OUT&lt;/b&gt;" style="rounded=1;whiteSpace=wrap;html=1;fillColor=#FFC233;" vertex="1" parent="1">
                    <mxGeometry x="3260" y="1100" width="190" height="90" as="geometry"/>
                </mxCell>
                <mxCell id="234" value="" style="endArrow=classic;html=1;fontSize=14;elbow=vertical;entryX=0;entryY=0.5;entryDx=0;entryDy=0;" edge="1" parent="1" target="4">
                    <mxGeometry width="50" height="50" relative="1" as="geometry">
                        <mxPoint x="1200" y="190" as="sourcePoint"/>
                        <mxPoint x="1250" y="140" as="targetPoint"/>
                    </mxGeometry>
                </mxCell>
                <mxCell id="239" value="&lt;font style=&quot;font-size: 24px;&quot;&gt;&lt;b&gt;A&lt;/b&gt;&lt;/font&gt;" style="shape=ellipse;html=1;dashed=0;whitespace=wrap;aspect=fixed;perimeter=ellipsePerimeter;fontSize=14;fillColor=#CC0000;" vertex="1" parent="1">
                    <mxGeometry x="-135" y="1760" width="80" height="80" as="geometry"/>
                </mxCell>
                <mxCell id="240" value="" style="endArrow=none;html=1;fontSize=24;elbow=vertical;" edge="1" parent="1">
                    <mxGeometry width="50" height="50" relative="1" as="geometry">
                        <mxPoint x="-360" y="1800" as="sourcePoint"/>
                        <mxPoint x="-360" y="1700" as="targetPoint"/>
                    </mxGeometry>
                </mxCell>
                <mxCell id="241" value="" style="endArrow=classic;html=1;fontSize=24;elbow=vertical;" edge="1" parent="1">
                    <mxGeometry width="50" height="50" relative="1" as="geometry">
                        <mxPoint x="-360" y="1800" as="sourcePoint"/>
                        <mxPoint x="-140" y="1800" as="targetPoint"/>
                    </mxGeometry>
                </mxCell>
                <mxCell id="243" value="" style="endArrow=classic;html=1;fontSize=24;elbow=vertical;entryX=1;entryY=0.5;entryDx=0;entryDy=0;" edge="1" parent="1" target="239">
                    <mxGeometry width="50" height="50" relative="1" as="geometry">
                        <mxPoint x="160" y="1800" as="sourcePoint"/>
                        <mxPoint x="210" y="1750" as="targetPoint"/>
                    </mxGeometry>
                </mxCell>
                <mxCell id="244" value="" style="endArrow=none;html=1;fontSize=24;elbow=vertical;" edge="1" parent="1">
                    <mxGeometry width="50" height="50" relative="1" as="geometry">
                        <mxPoint x="160" y="1800" as="sourcePoint"/>
                        <mxPoint x="160" y="1700" as="targetPoint"/>
                    </mxGeometry>
                </mxCell>
                <mxCell id="247" value="&lt;span style=&quot;font-size: 24px;&quot;&gt;&lt;b&gt;B&lt;/b&gt;&lt;/span&gt;" style="shape=ellipse;html=1;dashed=0;whitespace=wrap;aspect=fixed;perimeter=ellipsePerimeter;fontSize=14;fillColor=#CC6600;" vertex="1" parent="1">
                    <mxGeometry x="815" y="1760" width="80" height="80" as="geometry"/>
                </mxCell>
                <mxCell id="248" value="" style="endArrow=classic;html=1;fontSize=24;elbow=vertical;entryX=0;entryY=0.5;entryDx=0;entryDy=0;" edge="1" parent="1" target="247">
                    <mxGeometry width="50" height="50" relative="1" as="geometry">
                        <mxPoint x="530" y="1800" as="sourcePoint"/>
                        <mxPoint x="580" y="1750" as="targetPoint"/>
                    </mxGeometry>
                </mxCell>
                <mxCell id="249" value="" style="endArrow=none;html=1;fontSize=24;elbow=vertical;" edge="1" parent="1">
                    <mxGeometry width="50" height="50" relative="1" as="geometry">
                        <mxPoint x="530" y="1800" as="sourcePoint"/>
                        <mxPoint x="530" y="1710" as="targetPoint"/>
                    </mxGeometry>
                </mxCell>
                <mxCell id="250" value="" style="endArrow=none;html=1;fontSize=24;elbow=vertical;" edge="1" parent="1">
                    <mxGeometry width="50" height="50" relative="1" as="geometry">
                        <mxPoint x="1120" y="1800" as="sourcePoint"/>
                        <mxPoint x="1120" y="1710" as="targetPoint"/>
                    </mxGeometry>
                </mxCell>
                <mxCell id="251" value="" style="endArrow=classic;html=1;fontSize=24;elbow=vertical;entryX=1;entryY=0.5;entryDx=0;entryDy=0;" edge="1" parent="1" target="247">
                    <mxGeometry width="50" height="50" relative="1" as="geometry">
                        <mxPoint x="1120" y="1800" as="sourcePoint"/>
                        <mxPoint x="1170" y="1750" as="targetPoint"/>
                    </mxGeometry>
                </mxCell>
                <mxCell id="254" value="&lt;span style=&quot;font-size: 24px;&quot;&gt;&lt;b&gt;C&lt;/b&gt;&lt;/span&gt;" style="shape=ellipse;html=1;dashed=0;whitespace=wrap;aspect=fixed;perimeter=ellipsePerimeter;fontSize=14;fillColor=#CCCC00;" vertex="1" parent="1">
                    <mxGeometry x="1905" y="1760" width="80" height="80" as="geometry"/>
                </mxCell>
                <mxCell id="255" value="" style="endArrow=classic;html=1;fontSize=24;elbow=vertical;entryX=0;entryY=0.5;entryDx=0;entryDy=0;" edge="1" parent="1" target="254">
                    <mxGeometry width="50" height="50" relative="1" as="geometry">
                        <mxPoint x="1600" y="1800" as="sourcePoint"/>
                        <mxPoint x="1650" y="1750" as="targetPoint"/>
                    </mxGeometry>
                </mxCell>
                <mxCell id="256" value="" style="endArrow=none;html=1;fontSize=24;elbow=vertical;" edge="1" parent="1">
                    <mxGeometry width="50" height="50" relative="1" as="geometry">
                        <mxPoint x="1600" y="1800" as="sourcePoint"/>
                        <mxPoint x="1600" y="1720" as="targetPoint"/>
                    </mxGeometry>
                </mxCell>
                <mxCell id="257" value="" style="endArrow=none;html=1;fontSize=24;elbow=vertical;" edge="1" parent="1">
                    <mxGeometry width="50" height="50" relative="1" as="geometry">
                        <mxPoint x="2250" y="1800" as="sourcePoint"/>
                        <mxPoint x="2250" y="1720" as="targetPoint"/>
                    </mxGeometry>
                </mxCell>
                <mxCell id="258" value="" style="endArrow=classic;html=1;fontSize=24;elbow=vertical;entryX=1;entryY=0.5;entryDx=0;entryDy=0;" edge="1" parent="1" target="254">
                    <mxGeometry width="50" height="50" relative="1" as="geometry">
                        <mxPoint x="2250" y="1800" as="sourcePoint"/>
                        <mxPoint x="2300" y="1750" as="targetPoint"/>
                    </mxGeometry>
                </mxCell>
                <mxCell id="260" value="&lt;span style=&quot;font-size: 24px;&quot;&gt;&lt;b&gt;D&lt;/b&gt;&lt;/span&gt;" style="shape=ellipse;html=1;dashed=0;whitespace=wrap;aspect=fixed;perimeter=ellipsePerimeter;fontSize=14;fillColor=#66CC00;" vertex="1" parent="1">
                    <mxGeometry x="2775" y="1730" width="80" height="80" as="geometry"/>
                </mxCell>
                <mxCell id="265" value="" style="endArrow=classic;html=1;fontFamily=Helvetica;fontSize=24;fontColor=default;align=center;strokeColor=default;elbow=vertical;" edge="1" parent="1">
                    <mxGeometry width="50" height="50" relative="1" as="geometry">
                        <mxPoint x="-100" y="1900" as="sourcePoint"/>
                        <mxPoint x="2822" y="1910" as="targetPoint"/>
                    </mxGeometry>
                </mxCell>
                <mxCell id="266" value="" style="endArrow=classic;html=1;fontSize=24;elbow=vertical;" edge="1" parent="1">
                    <mxGeometry width="50" height="50" relative="1" as="geometry">
                        <mxPoint x="1360" y="1910" as="sourcePoint"/>
                        <mxPoint x="1360" y="2030" as="targetPoint"/>
                    </mxGeometry>
                </mxCell>
                <mxCell id="267" value="&lt;b&gt;&lt;font style=&quot;font-size: 18px;&quot;&gt;END&lt;/font&gt;&lt;/b&gt;" style="ellipse;whiteSpace=wrap;html=1;fillColor=#FF6666;" vertex="1" parent="1">
                    <mxGeometry x="1300" y="2030" width="120" height="60" as="geometry"/>
                </mxCell>
                <mxCell id="270" value="" style="endArrow=none;html=1;fontSize=18;elbow=vertical;" edge="1" parent="1">
                    <mxGeometry width="50" height="50" relative="1" as="geometry">
                        <mxPoint x="2820" y="1910" as="sourcePoint"/>
                        <mxPoint x="2820" y="1810" as="targetPoint"/>
                    </mxGeometry>
                </mxCell>
                <mxCell id="271" value="" style="endArrow=none;html=1;fontSize=18;elbow=vertical;" edge="1" parent="1">
                    <mxGeometry width="50" height="50" relative="1" as="geometry">
                        <mxPoint x="-100" y="1900" as="sourcePoint"/>
                        <mxPoint x="-100" y="1840" as="targetPoint"/>
                    </mxGeometry>
                </mxCell>
                <mxCell id="274" value="" style="endArrow=none;html=1;fontSize=18;elbow=vertical;" edge="1" parent="1">
                    <mxGeometry width="50" height="50" relative="1" as="geometry">
                        <mxPoint x="-860" y="1504" as="sourcePoint"/>
                        <mxPoint x="-520" y="1504" as="targetPoint"/>
                    </mxGeometry>
                </mxCell>
                <mxCell id="275" value="" style="endArrow=classic;html=1;fontSize=18;elbow=vertical;entryX=0.576;entryY=-0.014;entryDx=0;entryDy=0;entryPerimeter=0;" edge="1" parent="1" target="276">
                    <mxGeometry width="50" height="50" relative="1" as="geometry">
                        <mxPoint x="-860" y="1505" as="sourcePoint"/>
                        <mxPoint x="-845.83" y="1555" as="targetPoint"/>
                    </mxGeometry>
                </mxCell>
                <mxCell id="306" style="edgeStyle=none;html=1;fontSize=24;elbow=vertical;" edge="1" parent="1" source="276">
                    <mxGeometry relative="1" as="geometry">
                        <mxPoint x="-865" y="1680" as="targetPoint"/>
                    </mxGeometry>
                </mxCell>
                <mxCell id="276" value="&lt;b&gt;A&lt;/b&gt;" style="shape=ellipse;html=1;dashed=0;whitespace=wrap;aspect=fixed;perimeter=ellipsePerimeter;fontSize=18;fillColor=#CC0000;" vertex="1" parent="1">
                    <mxGeometry x="-900" y="1550" width="70" height="70" as="geometry"/>
                </mxCell>
                <mxCell id="277" value="" style="endArrow=classic;html=1;fontSize=18;elbow=vertical;entryX=0.5;entryY=0;entryDx=0;entryDy=0;" edge="1" parent="1" target="278">
                    <mxGeometry width="50" height="50" relative="1" as="geometry">
                        <mxPoint x="-735.83" y="1505" as="sourcePoint"/>
                        <mxPoint x="-735.83" y="1555" as="targetPoint"/>
                    </mxGeometry>
                </mxCell>
                <mxCell id="304" style="edgeStyle=none;html=1;fontSize=24;elbow=vertical;" edge="1" parent="1" source="278">
                    <mxGeometry relative="1" as="geometry">
                        <mxPoint x="-735" y="1680" as="targetPoint"/>
                    </mxGeometry>
                </mxCell>
                <mxCell id="278" value="&lt;b&gt;B&lt;/b&gt;" style="shape=ellipse;html=1;dashed=0;whitespace=wrap;aspect=fixed;perimeter=ellipsePerimeter;fontSize=18;fillColor=#CC6600;" vertex="1" parent="1">
                    <mxGeometry x="-770" y="1550" width="70" height="70" as="geometry"/>
                </mxCell>
                <mxCell id="279" value="" style="endArrow=classic;html=1;fontSize=18;elbow=vertical;entryX=0.5;entryY=0;entryDx=0;entryDy=0;" edge="1" parent="1" target="280">
                    <mxGeometry width="50" height="50" relative="1" as="geometry">
                        <mxPoint x="-625" y="1505" as="sourcePoint"/>
                        <mxPoint x="-635.83" y="1555" as="targetPoint"/>
                    </mxGeometry>
                </mxCell>
                <mxCell id="305" style="edgeStyle=none;html=1;fontSize=24;elbow=vertical;" edge="1" parent="1" source="280">
                    <mxGeometry relative="1" as="geometry">
                        <mxPoint x="-625" y="1680" as="targetPoint"/>
                    </mxGeometry>
                </mxCell>
                <mxCell id="280" value="&lt;b&gt;C&lt;/b&gt;" style="shape=ellipse;html=1;dashed=0;whitespace=wrap;aspect=fixed;perimeter=ellipsePerimeter;fontSize=18;fillColor=#CCCC00;" vertex="1" parent="1">
                    <mxGeometry x="-660" y="1550" width="70" height="70" as="geometry"/>
                </mxCell>
                <mxCell id="281" value="" style="endArrow=classic;html=1;fontSize=18;elbow=vertical;" edge="1" parent="1">
                    <mxGeometry width="50" height="50" relative="1" as="geometry">
                        <mxPoint x="-520" y="1505" as="sourcePoint"/>
                        <mxPoint x="-519" y="1550" as="targetPoint"/>
                    </mxGeometry>
                </mxCell>
                <mxCell id="307" style="edgeStyle=none;html=1;fontSize=24;elbow=vertical;exitX=0.567;exitY=1.005;exitDx=0;exitDy=0;exitPerimeter=0;" edge="1" parent="1" source="282">
                    <mxGeometry relative="1" as="geometry">
                        <mxPoint x="-520" y="1680" as="targetPoint"/>
                    </mxGeometry>
                </mxCell>
                <mxCell id="282" value="&lt;b&gt;D&lt;/b&gt;" style="shape=ellipse;html=1;dashed=0;whitespace=wrap;aspect=fixed;perimeter=ellipsePerimeter;fontSize=18;fillColor=#66CC00;" vertex="1" parent="1">
                    <mxGeometry x="-560" y="1550" width="70" height="70" as="geometry"/>
                </mxCell>
                <mxCell id="287" value="" style="endArrow=none;html=1;fontSize=18;elbow=vertical;" edge="1" parent="1">
                    <mxGeometry width="50" height="50" relative="1" as="geometry">
                        <mxPoint x="-870" y="1680" as="sourcePoint"/>
                        <mxPoint x="-520" y="1680" as="targetPoint"/>
                    </mxGeometry>
                </mxCell>
                <mxCell id="289" value="" style="endArrow=none;html=1;fontSize=18;elbow=vertical;" edge="1" parent="1">
                    <mxGeometry width="50" height="50" relative="1" as="geometry">
                        <mxPoint x="-680" y="2060" as="sourcePoint"/>
                        <mxPoint x="-680" y="1680" as="targetPoint"/>
                    </mxGeometry>
                </mxCell>
                <mxCell id="291" value="" style="endArrow=classic;html=1;fontSize=18;elbow=vertical;entryX=0;entryY=0.5;entryDx=0;entryDy=0;" edge="1" parent="1" target="267">
                    <mxGeometry width="50" height="50" relative="1" as="geometry">
                        <mxPoint x="-680" y="2060" as="sourcePoint"/>
                        <mxPoint x="-630" y="2010" as="targetPoint"/>
                    </mxGeometry>
                </mxCell>
                <mxCell id="292" value="" style="endArrow=none;html=1;fontSize=18;elbow=vertical;" edge="1" parent="1">
                    <mxGeometry width="50" height="50" relative="1" as="geometry">
                        <mxPoint x="3360" y="2060" as="sourcePoint"/>
                        <mxPoint x="3360" y="1190" as="targetPoint"/>
                    </mxGeometry>
                </mxCell>
                <mxCell id="293" value="" style="endArrow=classic;html=1;fontSize=18;elbow=vertical;entryX=1;entryY=0.5;entryDx=0;entryDy=0;" edge="1" parent="1" target="267">
                    <mxGeometry width="50" height="50" relative="1" as="geometry">
                        <mxPoint x="3363.3333333333335" y="2060" as="sourcePoint"/>
                        <mxPoint x="1690" y="2000" as="targetPoint"/>
                    </mxGeometry>
                </mxCell>
                <mxCell id="294" value="" style="endArrow=none;html=1;fontSize=18;elbow=vertical;" edge="1" parent="1">
                    <mxGeometry width="50" height="50" relative="1" as="geometry">
                        <mxPoint x="860" y="1900" as="sourcePoint"/>
                        <mxPoint x="860" y="1840" as="targetPoint"/>
                    </mxGeometry>
                </mxCell>
                <mxCell id="295" value="" style="endArrow=none;html=1;fontSize=18;elbow=vertical;" edge="1" parent="1">
                    <mxGeometry width="50" height="50" relative="1" as="geometry">
                        <mxPoint x="1950" y="1910" as="sourcePoint"/>
                        <mxPoint x="1950" y="1840" as="targetPoint"/>
                    </mxGeometry>
                </mxCell>
                <mxCell id="311" value="&lt;b&gt;REDIRECT TO ADMIN LOGIN PAGE&lt;/b&gt;" style="rounded=1;whiteSpace=wrap;html=1;fillColor=#FFC233;" vertex="1" parent="1">
                    <mxGeometry x="3260" y="1480" width="190" height="70" as="geometry"/>
                </mxCell>
            </root>
        </mxGraphModel>
    </diagram>
</mxfile>